<?xml version="1.0" encoding="UTF-8"?>
<svg id="Warstwa_1" data-name="Warstwa 1" xmlns="http://www.w3.org/2000/svg" xmlns:xlink="http://www.w3.org/1999/xlink" viewBox="0 0 130 130">
  <defs>
    <style>
      .cls-1 {
        fill: #fff;
      }

      .cls-2 {
        fill: url(#Gradient_bez_nazwy_11);
      }
    </style>
    <linearGradient id="Gradient_bez_nazwy_11" data-name="Gradient bez nazwy 11" x1="5.18" y1="101.47" x2="124.82" y2="28.53" gradientUnits="userSpaceOnUse">
      <stop offset="0" stop-color="#0069b4"/>
      <stop offset="1" stop-color="#00a8d4"/>
    </linearGradient>
  </defs>
  <rect class="cls-2" x="9.17" y="9.17" width="111.67" height="111.67" rx="17.83" ry="17.83"/>
  <path class="cls-1" d="M106.83,111.11l-16.04-16.04v13.28h-6.07v-23.69h23.69v6.07h-13.4l16.04,16.04-4.23,4.35ZM64.82,110.63c-6.35,0-12.31-1.2-17.89-3.61-5.58-2.41-10.44-5.68-14.56-9.81-4.13-4.13-7.4-8.97-9.8-14.52-2.41-5.55-3.61-11.48-3.61-17.79s1.2-12.38,3.61-17.96c2.41-5.59,5.68-10.45,9.8-14.6,4.13-4.15,8.98-7.42,14.56-9.83,5.58-2.41,11.54-3.61,17.89-3.61s12.31,1.2,17.89,3.61c5.58,2.41,10.44,5.68,14.57,9.83,4.13,4.15,7.4,9.01,9.81,14.59,2.41,5.58,3.61,11.57,3.61,17.96,0,1.55-.07,3.09-.2,4.6-.13,1.52-.36,3.04-.68,4.58h-6.34c.39-1.52.68-3.05.87-4.57.19-1.52.28-3.06.28-4.62,0-1.85-.13-3.72-.38-5.59-.26-1.87-.65-3.73-1.18-5.57h-19.36c.27,1.85.48,3.71.63,5.56.15,1.85.23,3.7.23,5.56,0,1.55-.04,3.1-.13,4.63-.08,1.53-.21,3.07-.38,4.6h-6.15c.2-1.54.34-3.08.44-4.6.1-1.53.15-3.05.15-4.58,0-1.87-.07-3.73-.2-5.6-.14-1.87-.35-3.72-.65-5.57h-25.55c-.31,1.85-.53,3.71-.68,5.56-.15,1.85-.22,3.71-.22,5.56s.07,3.69.22,5.52c.15,1.83.36,3.65.64,5.47h21.46v6.07h-20.21c1.16,4.19,2.6,8.26,4.33,12.2,1.73,3.94,4.12,7.44,7.19,10.49,1.58,0,3.14-.08,4.66-.25,1.53-.17,3.08-.4,4.65-.68v6.04c-1.57.28-3.13.51-4.65.68-1.53.17-3.08.26-4.66.26ZM26.57,75.84h19.37c-.28-1.82-.48-3.64-.61-5.47-.13-1.83-.2-3.66-.2-5.48s.06-3.73.18-5.59c.12-1.86.32-3.72.59-5.56h-19.32c-.53,1.84-.92,3.7-1.18,5.57-.26,1.87-.38,3.75-.38,5.62s.13,3.68.38,5.49c.25,1.82.64,3.63,1.18,5.43ZM28.77,47.66h18.22c.94-3.93,2.18-7.73,3.71-11.41,1.53-3.68,3.5-7.15,5.89-10.42-6.05,1.42-11.5,4.02-16.36,7.79-4.86,3.78-8.68,8.45-11.46,14.03ZM56.51,103.63c-2.25-3.29-4.15-6.76-5.71-10.41-1.56-3.65-2.8-7.42-3.71-11.32h-18.32c2.69,5.6,6.47,10.32,11.33,14.14,4.86,3.83,10.33,6.35,16.41,7.59ZM53.31,47.66h23.07c-1.06-4.23-2.54-8.28-4.43-12.15-1.89-3.87-4.27-7.44-7.13-10.68-2.88,3.24-5.26,6.79-7.15,10.67-1.88,3.88-3.34,7.93-4.37,12.16ZM82.68,47.66h18.18c-2.78-5.58-6.59-10.27-11.44-14.09-4.85-3.81-10.28-6.37-16.3-7.69,2.28,3.29,4.18,6.77,5.69,10.45,1.51,3.68,2.8,7.45,3.87,11.33Z"/>
</svg>